<svg preserveAspectRatio="none" overflow="visible" style="display: block;" width="16" height="16" viewBox="0 0 16 16" fill="none" xmlns="http://www.w3.org/2000/svg">
<g id="Pin Icon">
<path id="Icon" d="M7.87077 13.9223C8.57018 13.9223 9.13715 13.3553 9.13715 12.6559C9.13715 11.9565 8.57018 11.3896 7.87077 11.3896C7.17137 11.3896 6.6044 11.9565 6.6044 12.6559C6.6044 13.3553 7.17137 13.9223 7.87077 13.9223Z" fill="#F7F6F7"/>
<path id="icdest__group__boolean_operation" fill-rule="evenodd" clip-rule="evenodd" d="M7.87057 11.5595C7.26507 11.5595 6.77421 12.0504 6.77421 12.6559C6.77421 13.2614 7.26507 13.7522 7.87057 13.7522C8.47606 13.7522 8.96692 13.2614 8.96692 12.6559C8.96692 12.0504 8.47606 11.5595 7.87057 11.5595ZM6.05909 12.6559C6.05909 11.6554 6.87015 10.8443 7.87064 10.8443C8.87113 10.8443 9.6822 11.6554 9.6822 12.6559C9.6822 13.6564 8.87113 14.4674 7.87064 14.4674C6.87015 14.4674 6.05909 13.6564 6.05909 12.6559Z" fill="#1E1A23"/>
<path id="Icon_2" fill-rule="evenodd" clip-rule="evenodd" d="M7.24375 7.98583C7.24375 7.64128 7.52306 7.36197 7.8676 7.36197C8.21215 7.36197 8.49146 7.64128 8.49146 7.98583V12.2423C8.49146 12.5868 8.21215 12.8662 7.8676 12.8662C7.52306 12.8662 7.24375 12.5868 7.24375 12.2423V7.98583Z" fill="#D3D0D5"/>
<g id="icdest__icon--1" filter="url(#filter0_d_0_1799)">
<path d="M7.87074 8.10697C9.68915 8.10697 11.1633 6.63287 11.1633 4.81443C11.1633 2.99601 9.68915 1.52188 7.87074 1.52188C6.05232 1.52188 4.57819 2.99601 4.57819 4.81443C4.57819 6.63287 6.05232 8.10697 7.87074 8.10697Z" fill="#1E1A23"/>
<path d="M7.87116 2.02188C9.41324 2.02211 10.6632 3.27271 10.6632 4.81485C10.6629 6.35681 9.4131 7.60662 7.87116 7.60685C6.32902 7.60685 5.07842 6.35695 5.07819 4.81485C5.07819 3.27257 6.32888 2.02188 7.87116 2.02188Z" stroke="#95E7C3"/>
</g>
<path id="icdest__boolean_operation" fill-rule="evenodd" clip-rule="evenodd" d="M7.87068 1.67779C6.13826 1.67779 4.73386 3.08219 4.73386 4.81461C4.73386 6.54702 6.13826 7.95144 7.87068 7.95144C9.60311 7.95144 11.0075 6.54702 11.0075 4.81461C11.0075 3.08219 9.60311 1.67779 7.87068 1.67779ZM4.42253 4.81478C4.42253 2.91034 5.96637 1.3665 7.8708 1.3665C9.77524 1.3665 11.3191 2.91034 11.3191 4.81478C11.3191 6.71923 9.77524 8.26305 7.8708 8.26305C5.96637 8.26305 4.42253 6.71923 4.42253 4.81478Z" fill="#1E1A23"/>
<path id="icdest__icon--2" d="M7.87084 5.82775C8.43034 5.82775 8.88395 5.37415 8.88395 4.81465C8.88395 4.25514 8.43034 3.80156 7.87084 3.80156C7.31133 3.80156 6.85775 4.25514 6.85775 4.81465C6.85775 5.37415 7.31133 5.82775 7.87084 5.82775Z" fill="#F7F6F7"/>
</g>
<defs>
<filter id="filter0_d_0_1799" x="2.57819" y="1.52188" width="10.5851" height="10.5851" filterUnits="userSpaceOnUse" color-interpolation-filters="sRGB">
<feFlood flood-opacity="0" result="BackgroundImageFix"/>
<feColorMatrix in="SourceAlpha" type="matrix" values="0 0 0 0 0 0 0 0 0 0 0 0 0 0 0 0 0 0 127 0" result="hardAlpha"/>
<feOffset dy="2"/>
<feGaussianBlur stdDeviation="1"/>
<feComposite in2="hardAlpha" operator="out"/>
<feColorMatrix type="matrix" values="0 0 0 0 0.117647 0 0 0 0 0.101961 0 0 0 0 0.137255 0 0 0 0.51 0"/>
<feBlend mode="normal" in2="BackgroundImageFix" result="effect1_dropShadow_0_1799"/>
<feBlend mode="normal" in="SourceGraphic" in2="effect1_dropShadow_0_1799" result="shape"/>
</filter>
</defs>
</svg>
